<?xml version="1.0" encoding="utf-8"?>
<!-- Generator: Adobe Illustrator 16.0.0, SVG Export Plug-In . SVG Version: 6.00 Build 0)  -->
<!DOCTYPE svg PUBLIC "-//W3C//DTD SVG 1.1//EN" "http://www.w3.org/Graphics/SVG/1.1/DTD/svg11.dtd">
<svg version="1.1" id="Layer_1" xmlns="http://www.w3.org/2000/svg" xmlns:xlink="http://www.w3.org/1999/xlink" x="0px" y="0px"
	 width="45.629px" height="94.245px" viewBox="489.213 363.156 45.629 94.245"
	 enable-background="new 489.213 363.156 45.629 94.245" xml:space="preserve">
<g>
	<path fill="#54534A" d="M534.506,400.086l-2.509,0.424l-0.155-0.026c-0.037,0.17-0.084,0.367,0.028,0.559
		c-0.141,0.003-0.207,0.062-0.221,0.16c-0.311,0.084-0.168-0.451-0.535-0.287c0.008-0.234,0.15-0.374,0.302-0.507l-1.794-0.316
		l-2.37,0.296l-2.371,0.111l-2.369,0.048l-2.369-0.421l-2.113,0.078c0,0.018,0,0.024,0,0.045c-0.061,0.006-0.106-0.012-0.146-0.039
		l-0.105,0.004l-2.369,0.295l-2.368,0.087l-2.368-0.749l-2.369-0.039l-2.366,0.793l-2.368-0.038l-1.347-0.267
		c0.035,0.092,0.005,0.208-0.162,0.18c-0.041-0.079-0.022-0.146,0.016-0.209l-0.872-0.172l-2.367-0.164l-2.365,0.511l-2.364-0.281
		l-2.365-0.188l-2.254,0.324l-0.167,2.699l0.156,2.795l0.075,2.641l2.199,0.341l2.375-0.3l2.371,0.537l2.37-0.035l2.369,0.029
		l2.369-0.396l2.364,0.383l2.37-0.539l2.369,0.029l2.367,0.146l2.369,0.275l2.367-0.269l2.367,0.369l2.365-0.34l2.368-0.178
		l2.363-0.323l2.365,0.175l2.365-0.034l2.6,0.477l-0.266-2.992l0.446-2.795L534.506,400.086z M491.997,402.393
		c0.09-0.401,0.396-0.44,0.577-0.688c0.305,0.143,0.387,0.426,0.525,0.674c-0.115,0.178-0.269,0.283-0.387,0.457
		C492.241,402.832,492.198,402.561,491.997,402.393z M492.959,404.953c-0.024-0.082,0.052-0.076,0.114-0.084
		c0-0.041-0.005-0.08-0.007-0.123c0.096-0.055,0.131,0.152,0.157,0.035C493.381,404.938,493.049,405.1,492.959,404.953z
		 M493.224,404.701c-0.002-0.037,0.046-0.031,0.078-0.045c0-0.035-0.021-0.037-0.045-0.037c0.004-0.104,0.073,0.053,0.157-0.009
		C493.449,404.748,493.284,404.761,493.224,404.701z M493.74,406.258c-0.124,0.004-0.09-0.236,0.028-0.239
		C493.735,406.117,493.761,406.104,493.74,406.258z M493.967,405.971c-0.026,0.041-0.22,0.168-0.034,0.158
		c-0.157,0.127-0.211-0.217,0.029-0.201c0.009,0.033,0.041,0.039,0.044,0.082C493.99,406.068,493.967,406.014,493.967,405.971z
		 M494.491,404.75c-0.508-0.215,0.001-0.363-0.134-0.842c0.309,0.106,0.222-0.055,0.621,0.024
		C494.944,404.297,494.694,404.506,494.491,404.75z M495.056,400.65c-0.107,0.053-0.238,0.063-0.355,0.016
		c-0.208-0.328,0.417-0.547,0.396-0.098C495.057,400.572,495.066,400.619,495.056,400.65z M495.241,403.033
		c-0.157-0.088,0.012-0.119-0.016-0.279c0.101,0.049,0.076-0.01,0.2,0.027C495.402,402.902,495.318,402.961,495.241,403.033z
		 M496.115,401.262c-0.057-0.112-0.018-0.203,0.064-0.28c0.006,0.001,0.008,0.007,0.013,0.009c-0.003-0.016-0.011-0.024-0.008-0.044
		c0.057-0.066,0.222-0.068,0.202,0.069c-0.025,0.029-0.072,0.043-0.115,0.041C496.324,401.151,496.297,401.293,496.115,401.262z
		 M498.196,406.986c-0.047-0.002-0.072,0.016-0.078,0.045c-0.103,0.018-0.036-0.15-0.164-0.109c0.02-0.133,0.16-0.158,0.228-0.252
		C498.294,406.728,498.134,406.852,498.196,406.986z M498.805,401.078c0.169-0.064,0.107,0.127,0.241,0.104
		C498.97,401.285,498.77,401.303,498.805,401.078z M498.901,404.168c-0.023-0.086,0.054-0.08,0.115-0.084
		c-0.003-0.041-0.005-0.08-0.007-0.119c0.094-0.057,0.133,0.146,0.161,0.031C499.323,404.152,498.99,404.311,498.901,404.168z
		 M499.166,403.912c0-0.037,0.046-0.029,0.075-0.039c0.007-0.037-0.018-0.039-0.044-0.039c0.008-0.104,0.074,0.053,0.162-0.008
		C499.394,403.963,499.229,403.973,499.166,403.912z M499.27,400.141c0.034-0.057,0.102-0.084,0.108-0.164
		c0.047,0.005,0.025,0.041,0.004,0.041c-0.027,0.111,0.06,0.097,0.048,0.195C499.325,400.248,499.348,400.137,499.27,400.141z
		 M499.686,405.475c-0.127,0-0.092-0.237,0.026-0.239C499.677,405.33,499.701,405.32,499.686,405.475z M499.906,405.184
		c-0.021,0.041-0.216,0.168-0.028,0.16c-0.157,0.127-0.216-0.219,0.027-0.2c0.008,0.033,0.04,0.038,0.045,0.079
		C499.93,405.281,499.908,405.225,499.906,405.184z M500.747,407.299l-0.653,0.521c-0.098-0.244,0.137-0.257,0.321-0.297
		c-0.021-0.119-0.035-0.238-0.057-0.359C500.528,407.038,500.658,407.223,500.747,407.299l0.112-0.09
		C500.841,407.353,500.803,407.347,500.747,407.299z M500.818,406.969c-0.013-0.117,0.135-0.116,0.227-0.158
		c-0.003-0.104-0.065-0.104-0.14-0.1c-0.022-0.314,0.229,0.129,0.479-0.078C501.531,407.037,501.03,407.131,500.818,406.969z
		 M504.138,406.201c-0.046-0.004-0.069,0.014-0.075,0.043c-0.104,0.02-0.039-0.146-0.164-0.107c0.014-0.137,0.159-0.159,0.224-0.25
		C504.236,405.943,504.075,406.066,504.138,406.201z M503.834,406.07c-0.147-0.062-0.238-0.027-0.291,0.065
		c-0.353-0.043,0.018-0.528-0.43-0.516c0.192-0.412,0.67-0.355,0.965-0.592C504.397,405.322,503.762,405.572,503.834,406.07z
		 M506.034,407.037c-0.096-0.246,0.136-0.258,0.323-0.297c-0.018-0.117-0.037-0.24-0.058-0.363c0.275-0.203,0.453,0.414,0.501,0.045
		C507.325,406.854,506.354,407.449,506.034,407.037z M506.762,406.182c-0.017-0.114,0.13-0.114,0.222-0.155
		c0.006-0.109-0.064-0.107-0.14-0.103c-0.019-0.312,0.231,0.133,0.479-0.076C507.474,406.252,506.972,406.344,506.762,406.182z
		 M514.391,403.244c-0.318,0.201-0.721,0.268-1.08,0.174c-0.75-0.938,1.086-1.815,1.16-0.434
		C514.354,403.008,514.402,403.146,514.391,403.244z M517.924,403.789c0.151-0.221,0.658-0.283,0.643,0.146
		C518.416,404.152,517.907,404.219,517.924,403.789z M522.275,408.324c-0.442,0.268-0.123-0.515-0.438-0.43
		C521.952,407.518,522.346,407.965,522.275,408.324z M523.424,402.344c-1.25,0.244-1.166-1.916,0.172-1.3
		c-0.039,0.116,0.115,0.142,0.203,0.204C523.834,401.644,523.693,402.053,523.424,402.344z M528.053,406.818
		c0.061,0.104,0.176,0.014,0.272-0.006c0.293,0.237,0.479,0.6,0.502,0.971C528.178,408.789,526.768,407.324,528.053,406.818z
		 M530.391,403.285c0.256-0.238,0.061-0.234,0.33-0.574c0.33,0.213,0.399,0.553,0.526,0.861
		C530.797,403.943,530.907,403.398,530.391,403.285z"/>
	<path fill="#54534A" d="M534.422,381.848l-2.425-0.313l-2.375,0.41l-2.37-0.192l-2.371,0.14l-2.369,0.412l-0.232-0.043
		c0.025,0.076,0.002,0.163-0.143,0.308c-0.256-0.133-0.529-0.238-0.724-0.469l-1.271-0.236l-2.365-0.137l-2.369,0.219l-2.369-0.297
		l-2.367,0.532l-2.369-0.406l-2.366,0.147l-2.368-0.448l-2.365,0.243l-2.367,0.483l-2.365-0.419l-2.364,0.297l-2.365,0.112
		l-2.102-0.076l-0.338,2.57l0.086,2.797l0.223,2.591l2.142-0.194l2.375,0.749l2.37,0.039l1.947-0.651c0-0.004,0-0.006,0-0.009
		c0.01-0.002,0.017,0.001,0.024,0l0.398-0.135l2.369,0.041l2.369,0.467l2.364,0.164l2.37-0.511l2.368,0.279l2.368,0.188l2.369-0.375
		l2.367,0.201l2.367-0.155l2.365-0.131l1.252,0.223c0.1-0.154,0.258-0.267,0.256-0.494c0.139,0,0.086,0.113,0.018,0.121
		c-0.037,0.289,0.123,0.305,0.187,0.455l0.657,0.117l2.363-0.299l2.365,0.537l2.365-0.035l2.688-0.12l-0.076-3.083l0.156-2.781
		L534.422,381.848z M495.21,387.9c-0.398,0.162-0.527-0.051-0.759-0.125c-0.063-0.365,0.18-0.508,0.245-0.777
		c0.308,0.014,0.473,0.223,0.679,0.385C495.34,387.57,495.241,387.713,495.21,387.9z M501.153,387.113
		c-0.399,0.164-0.525-0.053-0.758-0.123c-0.064-0.363,0.178-0.508,0.243-0.779c0.309,0.018,0.476,0.227,0.68,0.383
		C501.281,386.785,501.187,386.932,501.153,387.113z M502.577,385.537c-0.076-0.414,0.134-0.676,0.479-0.85
		C503.493,384.936,503.36,385.922,502.577,385.537z M503.55,382.33c-0.155-0.089,0.013-0.121-0.016-0.279
		c0.098,0.046,0.075-0.01,0.201,0.031C503.715,382.199,503.625,382.255,503.55,382.33z M511.129,386.186
		c0.306,0.109,0.221-0.051,0.618,0.025c-0.03,0.367-0.283,0.574-0.484,0.818C510.753,386.812,511.262,386.664,511.129,386.186z
		 M511.454,387.518c0.619-0.045,0.234,0.523,0.687,0.574C511.793,388.352,511.131,388.203,511.454,387.518z M514.342,384.637
		c-0.193,0.338,0.104,0.375-0.023,0.678c-0.377,0.011-0.201-0.321-0.459-0.385c0.168-0.143,0.412-0.17,0.514-0.426
		C514.514,384.562,514.413,384.65,514.342,384.637z M517.07,385.4c0.31,0.11,0.224-0.053,0.621,0.022
		c-0.035,0.369-0.281,0.576-0.486,0.818C516.697,386.029,517.2,385.879,517.07,385.4z M517.471,389.227
		c-0.379-0.123-0.392-0.422-0.613-0.617c0.17-0.281,0.447-0.338,0.695-0.448c0.164,0.129,0.25,0.286,0.408,0.409
		C517.918,389.027,517.652,389.044,517.471,389.227z M526.051,382.768c-0.117-0.083-0.25-0.153-0.308-0.311
		c0.173-0.077,0.15,0.003,0.277-0.079C526.012,382.604,526.254,382.619,526.051,382.768z M532.895,388.586
		c0.102-0.441,0.602-0.232,0.689,0.029C533.486,389.059,532.986,388.848,532.895,388.586z"/>
	<path fill="#54534A" d="M534.51,369.174l0.149-2.802l-0.104-1.641c-0.008-0.005-0.019-0.006-0.023-0.011
		c-0.016-0.053-0.006-0.09,0.017-0.119l-0.07-1.112l-2.48,0.323l-2.375-0.6l-2.37,0.194l-2.371-0.133l-2.369,0.707l-0.623-0.009
		c0.016,0.013,0.033,0.023,0.047,0.04c-0.109,0.007-0.059,0.156-0.213,0.129c-0.021-0.087,0.021-0.118,0.039-0.17l-1.619-0.024
		l-2.365-0.644l-2.369-0.146l-2.368,0.145l-2.368,0.621l-2.369-0.356l-2.366-0.231l-2.368-0.157l-2.365,0.339l-2.367-0.291
		l-2.365,0.41l-2.364-0.193l-2.365,0.14l-2.05,0.266l-0.343,2.528l-0.137,2.796l0.206,2.754l2.333,0.277l0.246-0.055
		c-0.252-0.078-0.32-0.27-0.48-0.403c0.089-0.399,0.396-0.445,0.577-0.689c0.305,0.142,0.385,0.431,0.525,0.679
		c-0.086,0.13-0.189,0.229-0.286,0.338l1.667-0.373c-0.249-0.144-0.402-0.419-0.121-0.653c0.048,0.373,0.224-0.247,0.5-0.041
		c-0.02,0.119-0.039,0.238-0.059,0.359c0.187,0.043,0.419,0.049,0.322,0.297c-0.029,0.038-0.068,0.059-0.106,0.08l1.96,0.336
		l2.371-0.147l2.369,0.448l2.369-0.243l2.364-0.484l2.37,0.42l2.369-0.297l2.367-0.112l2.369-0.047l2.367,0.422l2.367-0.087
		l2.365-0.297l2.239-0.081c-0.231-0.526,0.496-1.049,0.982-0.804c0.057,0.389-0.008,0.737-0.268,0.985l1.776,0.563l2.365,0.038
		l2.365-0.794l2.09,0.168L534.51,369.174z M491.448,367.808c0.124-0.312,0.197-0.648,0.525-0.858
		c0.27,0.337,0.075,0.336,0.328,0.569C491.788,367.632,491.898,368.182,491.448,367.808z M492.473,367.517
		c-0.426-0.431,0.148-0.369,0.22-0.91c0.268,0.24,0.242,0.038,0.617,0.283C493.125,367.251,492.783,367.357,492.473,367.517z
		 M493.352,370.471c0.248,0.21,0.502-0.237,0.482,0.076c-0.072-0.005-0.146-0.005-0.143,0.099c0.092,0.046,0.238,0.043,0.223,0.165
		C493.705,370.972,493.203,370.877,493.352,370.471z M494.574,370.002c-0.107,0.054-0.237,0.062-0.355,0.017
		c-0.206-0.327,0.417-0.55,0.395-0.099C494.574,369.923,494.582,369.971,494.574,370.002z M495.303,364.051
		c-0.008-0.094,0.077-0.083,0.053-0.194c-0.023,0-0.045-0.033,0.003-0.04c0.004,0.077,0.071,0.109,0.108,0.165
		C495.389,363.978,495.41,364.083,495.303,364.051z M495.701,370.3c0.057-0.066,0.223-0.07,0.204,0.066
		C495.847,370.433,495.682,370.436,495.701,370.3z M495.689,365.023c0.133,0.021,0.071-0.171,0.245-0.105
		C495.967,365.139,495.764,365.125,495.689,365.023z M496.617,370.871c-0.008-0.029-0.028-0.049-0.075-0.045
		c0.062-0.133-0.103-0.257,0.014-0.316c0.064,0.093,0.209,0.119,0.226,0.25C496.658,370.719,496.72,370.888,496.617,370.871z
		 M497.517,366.902c-0.135,0.039-0.169-0.035-0.241-0.064c-0.008-0.119,0.074-0.16,0.106-0.243c0.101,0.014,0.147,0.086,0.207,0.145
		C497.571,366.8,497.536,366.843,497.517,366.902z M498.618,365.101c-0.252,0.042-0.209-0.249-0.062-0.281
		C498.638,364.896,498.679,364.99,498.618,365.101z M499.27,366.587c-0.27-0.298-0.405-0.709-0.374-1.107
		c0.085-0.058,0.241-0.084,0.204-0.201C500.436,364.664,500.522,366.824,499.27,366.587z M501.741,369.754
		c-0.019,0.049-0.062,0.086-0.155,0.075c-0.177,0.067-0.369,0.086-0.56,0.062c0.062,0.063,0.065,0.206-0.031,0.206
		c-0.02-0.139-0.003-0.142-0.021-0.215c-0.017-0.002-0.032-0.004-0.048-0.008c0.019,0.082-0.028,0.167-0.12,0.094
		c0.147,0.007,0.054-0.073-0.001-0.125c-0.014-0.004-0.024-0.009-0.036-0.013c-0.007,0.035-0.023,0.067-0.039,0.016
		c0.001-0.013,0.009-0.017,0.015-0.024c-0.535-0.201-0.892-0.769-0.333-1.566c0.159,0.083,0.237-0.126,0.343-0.235
		c0.566,0.056,1.105,0.358,1.448,0.808C502.206,369.292,502.012,369.591,501.741,369.754z M502.745,367.167
		c-0.159-0.088,0.013-0.117-0.015-0.277c0.094,0.048,0.073-0.01,0.2,0.031C502.907,367.037,502.818,367.097,502.745,367.167z
		 M504.493,365.572c0.021,0.134-0.145,0.133-0.199,0.066C504.274,365.5,504.438,365.503,504.493,365.572z M504.267,369.644
		c0.169-0.06,0.108,0.129,0.239,0.108C504.432,369.852,504.231,369.865,504.267,369.644z M504.729,368.707
		c0.035-0.053,0.103-0.084,0.111-0.16c0.048,0.005,0.022,0.037,0.004,0.037c-0.029,0.112,0.061,0.098,0.048,0.195
		C504.786,368.813,504.807,368.707,504.729,368.707z M505.438,367.656c-0.077-0.07-0.168-0.133-0.186-0.248
		c0.125-0.038,0.104,0.018,0.197-0.028C505.426,367.539,505.593,367.57,505.438,367.656z M505.584,365.191
		c-0.022-0.45,0.604-0.227,0.394,0.099c-0.116,0.045-0.25,0.035-0.358-0.022C505.613,365.242,505.623,365.197,505.584,365.191z
		 M506.184,369.373c-0.202-0.243-0.451-0.451-0.481-0.814c0.396-0.079,0.31,0.084,0.62-0.025
		C506.184,369.01,506.697,369.158,506.184,369.373z M507.964,367.462c-0.114-0.177-0.271-0.281-0.387-0.459
		c0.14-0.248,0.22-0.533,0.529-0.678c0.179,0.247,0.487,0.293,0.569,0.69C508.48,367.187,508.44,367.457,507.964,367.462z
		 M518.346,367.104c-0.824,0.155-0.308-0.452-0.873-0.948c0.479-0.122,0.234-0.247,0.805-0.486
		C518.538,366.158,518.398,366.632,518.346,367.104z M522.434,365.422c0.189,0.008,0.068-0.248,0.32-0.192
		C522.842,365.535,522.559,365.551,522.434,365.422z M524.073,366.617c0.242-0.227,0.447-0.502,0.83-0.556
		c0.103,0.416-0.072,0.332,0.062,0.651C524.452,366.598,524.323,367.14,524.073,366.617z M526.531,364.996
		c-0.346,0.108-0.336-0.305-0.141-0.375C526.521,364.709,526.592,364.832,526.531,364.996z M530.456,371.387
		c0.259-0.026-0.034-0.167-0.075-0.215c0.008,0.055-0.013,0.139-0.052,0.055c0-0.059,0.041-0.066,0.05-0.114
		C530.709,371.042,530.698,371.534,530.456,371.387z M530.745,371.534c-0.053-0.216-0.014-0.204-0.08-0.331
		C530.825,371.182,530.918,371.51,530.745,371.534z M530.9,369.175c0.133,0.069,0.197-0.16,0.224-0.018
		c-0.035,0.006-0.068,0.014-0.054,0.059c0.047,0.008,0.109-0.006,0.117,0.047C531.107,369.359,530.875,369.371,530.9,369.175z
		 M531.195,369.375c0.06,0.163,0.076-0.133,0.217-0.072c0.005,0.057,0.009,0.113,0.015,0.168c0.086-0.002,0.188-0.023,0.172,0.099
		C531.502,369.783,531.006,369.625,531.195,369.375z M531.898,365.193c0.174,0.043,0.328,0.159,0.414,0.32
		c-0.018,0.042-0.068,0.091-0.023,0.125C531.943,366.207,531.365,365.422,531.898,365.193z M532.038,370.967
		c0.091-0.19,0.291-0.044,0.304,0.081C532.252,371.234,532.051,371.091,532.038,370.967z M532.163,368.878
		c-0.122-0.173-0.127-0.408-0.364-0.531c0.071-0.131,0.145-0.025,0.123,0.04c0.311,0.221,0.375-0.062,0.651,0.088
		C532.553,368.838,532.252,368.639,532.163,368.878z"/>
</g>
<g>
	<g>
		<path fill="#F15E3B" d="M534.561,448.479l-2.51,0.424l-0.154-0.026c-0.037,0.17-0.084,0.367,0.027,0.559
			c-0.141,0.003-0.207,0.062-0.221,0.16c-0.311,0.084-0.168-0.451-0.535-0.287c0.008-0.234,0.15-0.374,0.303-0.507l-1.795-0.316
			l-2.369,0.296l-2.371,0.111l-2.369,0.048l-2.369-0.421l-2.113,0.078c0,0.018,0,0.024,0,0.045
			c-0.061,0.006-0.107-0.012-0.146-0.039l-0.105,0.004l-2.369,0.295l-2.367,0.087l-2.369-0.749l-2.369-0.039l-2.366,0.793
			l-2.368-0.038l-1.347-0.267c0.035,0.092,0.005,0.208-0.162,0.18c-0.041-0.079-0.022-0.146,0.016-0.209l-0.872-0.172l-2.367-0.164
			l-2.365,0.511l-2.364-0.281l-2.365-0.188l-2.254,0.324l-0.167,2.699l0.156,2.795l0.075,2.641l2.199,0.341l2.375-0.3l2.371,0.537
			l2.37-0.035l2.369,0.029l2.369-0.396l2.364,0.383l2.37-0.539l2.369,0.029l2.367,0.146l2.369,0.275l2.367-0.269l2.367,0.369
			l2.365-0.34l2.369-0.178l2.363-0.323l2.365,0.175l2.365-0.034l2.6,0.477l-0.266-2.992l0.445-2.795L534.561,448.479z
			 M492.052,450.785c0.09-0.401,0.396-0.44,0.577-0.688c0.305,0.143,0.387,0.426,0.525,0.674c-0.115,0.178-0.269,0.283-0.387,0.457
			C492.296,451.225,492.253,450.953,492.052,450.785z M493.013,453.346c-0.024-0.082,0.052-0.076,0.114-0.084
			c0-0.041-0.005-0.08-0.007-0.123c0.096-0.055,0.131,0.152,0.157,0.035C493.435,453.33,493.103,453.492,493.013,453.346z
			 M493.278,453.094c-0.002-0.037,0.046-0.031,0.078-0.045c0-0.035-0.021-0.037-0.045-0.037c0.004-0.104,0.073,0.053,0.157-0.009
			C493.504,453.141,493.339,453.153,493.278,453.094z M493.795,454.65c-0.124,0.004-0.09-0.236,0.028-0.239
			C493.789,454.51,493.815,454.496,493.795,454.65z M494.021,454.363c-0.026,0.041-0.22,0.168-0.034,0.158
			c-0.157,0.127-0.211-0.217,0.029-0.201c0.009,0.033,0.041,0.039,0.044,0.082C494.044,454.461,494.021,454.406,494.021,454.363z
			 M494.546,453.143c-0.508-0.215,0.001-0.363-0.134-0.842c0.309,0.106,0.222-0.055,0.621,0.024
			C494.998,452.689,494.748,452.898,494.546,453.143z M495.11,449.043c-0.107,0.053-0.238,0.063-0.355,0.016
			c-0.208-0.328,0.417-0.547,0.396-0.098C495.111,448.965,495.12,449.012,495.11,449.043z M495.296,451.426
			c-0.157-0.088,0.012-0.119-0.016-0.279c0.101,0.049,0.076-0.01,0.2,0.027C495.456,451.295,495.372,451.354,495.296,451.426z
			 M496.169,449.654c-0.057-0.112-0.018-0.203,0.064-0.28c0.006,0.001,0.008,0.007,0.013,0.009
			c-0.003-0.016-0.011-0.024-0.008-0.044c0.057-0.066,0.222-0.068,0.202,0.069c-0.025,0.029-0.072,0.043-0.115,0.041
			C496.379,449.544,496.351,449.686,496.169,449.654z M498.25,455.379c-0.047-0.002-0.072,0.016-0.078,0.045
			c-0.103,0.018-0.036-0.15-0.164-0.109c0.02-0.133,0.16-0.158,0.228-0.252C498.348,455.12,498.188,455.244,498.25,455.379z
			 M498.859,449.471c0.169-0.064,0.107,0.127,0.241,0.104C499.024,449.678,498.824,449.695,498.859,449.471z M498.955,452.561
			c-0.023-0.086,0.054-0.08,0.115-0.084c-0.003-0.041-0.005-0.08-0.007-0.119c0.094-0.057,0.133,0.146,0.161,0.031
			C499.378,452.545,499.044,452.703,498.955,452.561z M499.22,452.305c0-0.037,0.046-0.029,0.075-0.039
			c0.007-0.037-0.018-0.039-0.044-0.039c0.008-0.104,0.074,0.053,0.162-0.008C499.448,452.355,499.283,452.365,499.22,452.305z
			 M499.324,448.533c0.034-0.057,0.102-0.084,0.108-0.164c0.047,0.005,0.025,0.041,0.004,0.041c-0.027,0.111,0.06,0.097,0.048,0.195
			C499.38,448.641,499.402,448.529,499.324,448.533z M499.74,453.867c-0.127,0-0.092-0.237,0.026-0.239
			C499.731,453.723,499.756,453.713,499.74,453.867z M499.96,453.576c-0.021,0.041-0.216,0.168-0.028,0.16
			c-0.157,0.127-0.216-0.219,0.027-0.2c0.008,0.033,0.04,0.038,0.045,0.079C499.984,453.674,499.963,453.617,499.96,453.576z
			 M500.802,455.691l-0.653,0.521c-0.098-0.244,0.137-0.257,0.321-0.297c-0.021-0.119-0.035-0.238-0.057-0.359
			C500.582,455.431,500.713,455.615,500.802,455.691l0.112-0.09C500.895,455.745,500.857,455.739,500.802,455.691z M500.872,455.361
			c-0.013-0.117,0.135-0.116,0.227-0.158c-0.003-0.104-0.065-0.104-0.14-0.1c-0.022-0.314,0.229,0.129,0.479-0.078
			C501.586,455.43,501.084,455.523,500.872,455.361z M504.192,454.594c-0.046-0.004-0.069,0.014-0.075,0.043
			c-0.104,0.02-0.039-0.146-0.164-0.107c0.014-0.137,0.159-0.159,0.224-0.25C504.29,454.336,504.13,454.459,504.192,454.594z
			 M503.888,454.463c-0.147-0.062-0.238-0.027-0.291,0.065c-0.353-0.043,0.018-0.528-0.43-0.516c0.192-0.412,0.67-0.355,0.965-0.592
			C504.451,453.715,503.816,453.965,503.888,454.463z M506.089,455.43c-0.096-0.246,0.136-0.258,0.323-0.297
			c-0.018-0.117-0.037-0.24-0.058-0.363c0.275-0.203,0.453,0.414,0.501,0.045C507.38,455.246,506.408,455.842,506.089,455.43z
			 M506.816,454.574c-0.017-0.114,0.13-0.114,0.222-0.155c0.006-0.109-0.064-0.107-0.14-0.103c-0.019-0.312,0.231,0.133,0.479-0.076
			C507.528,454.645,507.026,454.736,506.816,454.574z M514.446,451.637c-0.318,0.201-0.721,0.268-1.08,0.174
			c-0.75-0.938,1.086-1.815,1.16-0.434C514.408,451.4,514.455,451.539,514.446,451.637z M517.979,452.182
			c0.15-0.221,0.658-0.283,0.643,0.146C518.471,452.545,517.961,452.611,517.979,452.182z M522.328,456.717
			c-0.441,0.268-0.123-0.515-0.438-0.43C522.006,455.91,522.401,456.357,522.328,456.717z M523.479,450.736
			c-1.25,0.244-1.166-1.916,0.172-1.3c-0.039,0.116,0.115,0.142,0.203,0.204C523.889,450.036,523.746,450.445,523.479,450.736z
			 M528.108,455.211c0.061,0.104,0.176,0.014,0.271-0.006c0.293,0.237,0.48,0.6,0.502,0.971
			C528.233,457.182,526.823,455.717,528.108,455.211z M530.446,451.678c0.256-0.238,0.061-0.234,0.33-0.574
			c0.33,0.213,0.398,0.553,0.525,0.861C530.852,452.336,530.961,451.791,530.446,451.678z"/>
		<path fill="#F15E3B" d="M534.477,430.24l-2.426-0.312l-2.375,0.41l-2.369-0.192l-2.371,0.14l-2.369,0.412l-0.232-0.043
			c0.025,0.076,0.002,0.163-0.143,0.309c-0.256-0.133-0.529-0.238-0.725-0.469l-1.27-0.236l-2.365-0.137l-2.369,0.219l-2.369-0.297
			l-2.368,0.531l-2.369-0.406l-2.366,0.147l-2.368-0.448l-2.365,0.244l-2.367,0.482l-2.365-0.419l-2.364,0.297l-2.365,0.112
			l-2.102-0.076l-0.338,2.57l0.086,2.797l0.223,2.591l2.142-0.194l2.375,0.749l2.37,0.039l1.947-0.651c0-0.004,0-0.006,0-0.009
			c0.01-0.002,0.017,0.001,0.024,0l0.398-0.135l2.369,0.041l2.369,0.467l2.364,0.164l2.37-0.511l2.368,0.279l2.369,0.188
			l2.369-0.375l2.367,0.201l2.367-0.155l2.365-0.131l1.252,0.223c0.1-0.154,0.258-0.267,0.256-0.494
			c0.139,0,0.086,0.113,0.018,0.121c-0.037,0.289,0.123,0.305,0.186,0.455l0.658,0.117l2.363-0.299l2.365,0.537l2.365-0.035
			l2.688-0.12l-0.076-3.083l0.156-2.781L534.477,430.24z M495.264,436.293c-0.398,0.162-0.527-0.051-0.759-0.125
			c-0.063-0.365,0.18-0.508,0.245-0.777c0.308,0.014,0.473,0.223,0.679,0.385C495.394,435.963,495.296,436.105,495.264,436.293z
			 M501.207,435.506c-0.399,0.164-0.525-0.053-0.758-0.123c-0.064-0.363,0.178-0.508,0.243-0.779
			c0.309,0.018,0.476,0.227,0.68,0.383C501.335,435.178,501.241,435.324,501.207,435.506z M502.632,433.93
			c-0.076-0.414,0.134-0.676,0.479-0.85C503.548,433.328,503.414,434.314,502.632,433.93z M503.604,430.723
			c-0.155-0.089,0.013-0.121-0.016-0.279c0.098,0.047,0.075-0.01,0.201,0.031C503.769,430.592,503.679,430.647,503.604,430.723z
			 M511.183,434.578c0.306,0.109,0.221-0.051,0.618,0.025c-0.03,0.367-0.283,0.574-0.484,0.818
			C510.807,435.205,511.316,435.057,511.183,434.578z M511.509,435.91c0.619-0.045,0.234,0.523,0.687,0.574
			C511.847,436.744,511.185,436.596,511.509,435.91z M514.397,433.029c-0.193,0.338,0.104,0.375-0.023,0.678
			c-0.377,0.011-0.201-0.321-0.459-0.385c0.168-0.143,0.412-0.17,0.514-0.426C514.569,432.955,514.467,433.043,514.397,433.029z
			 M517.123,433.793c0.311,0.11,0.225-0.053,0.621,0.022c-0.035,0.369-0.281,0.576-0.486,0.818
			C516.75,434.422,517.254,434.271,517.123,433.793z M517.526,437.619c-0.379-0.123-0.393-0.422-0.613-0.617
			c0.17-0.281,0.447-0.338,0.695-0.448c0.164,0.129,0.25,0.286,0.408,0.409C517.973,437.42,517.705,437.437,517.526,437.619z
			 M526.106,431.16c-0.117-0.082-0.25-0.152-0.309-0.311c0.174-0.077,0.15,0.003,0.277-0.079
			C526.067,430.996,526.309,431.012,526.106,431.16z M532.949,436.979c0.102-0.441,0.602-0.232,0.689,0.029
			C533.539,437.451,533.039,437.24,532.949,436.979z"/>
		<path fill="#F15E3B" d="M534.565,417.566l0.148-2.802l-0.104-1.642c-0.008-0.004-0.018-0.006-0.023-0.01
			c-0.016-0.054-0.006-0.091,0.018-0.119l-0.07-1.112l-2.48,0.323l-2.375-0.601l-2.371,0.194l-2.371-0.133l-2.369,0.707l-0.623-0.01
			c0.016,0.014,0.033,0.023,0.047,0.041c-0.109,0.006-0.059,0.155-0.213,0.129c-0.021-0.088,0.021-0.119,0.039-0.17l-1.619-0.024
			l-2.365-0.644l-2.369-0.146l-2.367,0.145l-2.369,0.621l-2.369-0.355l-2.366-0.231l-2.368-0.157l-2.365,0.34l-2.367-0.291
			l-2.365,0.41l-2.364-0.193l-2.365,0.14l-2.05,0.267l-0.343,2.527l-0.137,2.796l0.206,2.755l2.333,0.276l0.246-0.056
			c-0.252-0.077-0.32-0.27-0.48-0.402c0.089-0.398,0.396-0.445,0.577-0.689c0.305,0.143,0.385,0.432,0.525,0.68
			c-0.086,0.13-0.189,0.229-0.286,0.338l1.667-0.373c-0.249-0.145-0.402-0.419-0.121-0.653c0.048,0.373,0.224-0.247,0.5-0.041
			c-0.02,0.119-0.039,0.238-0.059,0.359c0.187,0.043,0.419,0.049,0.322,0.297c-0.029,0.038-0.068,0.06-0.106,0.08l1.96,0.336
			l2.371-0.147l2.369,0.448l2.369-0.243l2.364-0.484l2.37,0.421l2.369-0.298l2.367-0.111l2.369-0.047l2.367,0.422l2.367-0.087
			l2.365-0.297l2.24-0.081c-0.232-0.526,0.496-1.049,0.982-0.805c0.057,0.39-0.008,0.737-0.268,0.985l1.775,0.563l2.365,0.037
			l2.365-0.793l2.09,0.168L534.565,417.566z M491.502,416.201c0.124-0.312,0.197-0.648,0.525-0.858
			c0.27,0.337,0.075,0.336,0.328,0.569C491.843,416.024,491.952,416.574,491.502,416.201z M492.527,415.91
			c-0.426-0.432,0.148-0.369,0.22-0.91c0.268,0.24,0.242,0.037,0.617,0.283C493.179,415.644,492.838,415.75,492.527,415.91z
			 M493.406,418.863c0.248,0.211,0.502-0.236,0.482,0.076c-0.072-0.005-0.146-0.005-0.143,0.1c0.092,0.045,0.238,0.043,0.223,0.164
			C493.76,419.365,493.258,419.27,493.406,418.863z M494.629,418.395c-0.107,0.055-0.237,0.062-0.355,0.018
			c-0.206-0.328,0.417-0.551,0.395-0.1C494.629,418.315,494.636,418.363,494.629,418.395z M495.357,412.443
			c-0.008-0.094,0.077-0.083,0.053-0.193c-0.023,0-0.045-0.033,0.003-0.041c0.004,0.078,0.071,0.109,0.108,0.166
			C495.443,412.371,495.465,412.476,495.357,412.443z M495.756,418.692c0.057-0.065,0.223-0.069,0.204,0.066
			C495.901,418.826,495.736,418.828,495.756,418.692z M495.743,413.416c0.133,0.021,0.071-0.172,0.245-0.105
			C496.021,413.531,495.818,413.518,495.743,413.416z M496.672,419.264c-0.008-0.029-0.028-0.049-0.075-0.045
			c0.062-0.133-0.103-0.258,0.014-0.316c0.064,0.094,0.209,0.119,0.226,0.25C496.713,419.111,496.774,419.281,496.672,419.264z
			 M497.571,415.295c-0.135,0.039-0.169-0.035-0.241-0.064c-0.008-0.119,0.074-0.16,0.106-0.242
			c0.101,0.014,0.147,0.086,0.207,0.145C497.625,415.192,497.591,415.235,497.571,415.295z M498.673,413.494
			c-0.252,0.041-0.209-0.25-0.062-0.281C498.692,413.289,498.733,413.383,498.673,413.494z M499.324,414.979
			c-0.27-0.298-0.405-0.709-0.374-1.106c0.085-0.059,0.241-0.084,0.204-0.201C500.49,413.057,500.576,415.217,499.324,414.979z
			 M501.796,418.146c-0.019,0.049-0.062,0.086-0.155,0.075c-0.177,0.067-0.369,0.086-0.56,0.062
			c0.062,0.063,0.065,0.207-0.031,0.207c-0.02-0.14-0.003-0.143-0.021-0.216c-0.017-0.002-0.032-0.004-0.048-0.008
			c0.019,0.082-0.028,0.167-0.12,0.094c0.147,0.007,0.054-0.073-0.001-0.125c-0.014-0.004-0.024-0.009-0.036-0.013
			c-0.007,0.035-0.023,0.066-0.039,0.016c0.001-0.013,0.009-0.017,0.015-0.023c-0.535-0.201-0.892-0.77-0.333-1.566
			c0.159,0.083,0.237-0.126,0.343-0.234c0.566,0.056,1.105,0.357,1.448,0.808C502.26,417.685,502.066,417.983,501.796,418.146z
			 M502.8,415.56c-0.159-0.088,0.013-0.117-0.015-0.276c0.094,0.047,0.073-0.011,0.2,0.03
			C502.962,415.43,502.872,415.49,502.8,415.56z M504.548,413.965c0.021,0.134-0.145,0.133-0.199,0.066
			C504.328,413.893,504.492,413.896,504.548,413.965z M504.321,418.037c0.169-0.061,0.108,0.129,0.239,0.107
			C504.486,418.244,504.285,418.258,504.321,418.037z M504.783,417.1c0.035-0.053,0.103-0.084,0.111-0.16
			c0.048,0.005,0.022,0.037,0.004,0.037c-0.029,0.111,0.061,0.098,0.048,0.195C504.841,417.205,504.861,417.1,504.783,417.1z
			 M505.492,416.049c-0.077-0.07-0.168-0.133-0.186-0.248c0.125-0.038,0.104,0.018,0.197-0.028
			C505.48,415.932,505.647,415.963,505.492,416.049z M505.638,413.584c-0.022-0.45,0.604-0.228,0.394,0.099
			c-0.116,0.045-0.25,0.035-0.358-0.022C505.667,413.635,505.677,413.59,505.638,413.584z M506.238,417.766
			c-0.202-0.243-0.451-0.451-0.481-0.814c0.396-0.078,0.31,0.084,0.62-0.024C506.238,417.402,506.751,417.551,506.238,417.766z
			 M508.018,415.854c-0.114-0.177-0.271-0.28-0.387-0.459c0.14-0.248,0.22-0.532,0.529-0.678c0.179,0.247,0.487,0.293,0.569,0.69
			C508.534,415.58,508.494,415.85,508.018,415.854z M518.401,415.496c-0.824,0.155-0.309-0.451-0.873-0.947
			c0.479-0.122,0.234-0.247,0.805-0.486C518.592,414.551,518.451,415.024,518.401,415.496z M522.489,413.814
			c0.189,0.008,0.068-0.248,0.32-0.191C522.897,413.928,522.614,413.943,522.489,413.814z M524.127,415.01
			c0.242-0.227,0.447-0.502,0.83-0.557c0.104,0.416-0.072,0.332,0.062,0.651C524.506,414.99,524.377,415.533,524.127,415.01z
			 M526.584,413.389c-0.346,0.107-0.336-0.305-0.141-0.375C526.574,413.102,526.647,413.225,526.584,413.389z M530.51,419.779
			c0.26-0.025-0.033-0.166-0.074-0.215c0.008,0.055-0.014,0.139-0.053,0.055c0-0.059,0.041-0.065,0.051-0.113
			C530.764,419.435,530.752,419.927,530.51,419.779z M530.799,419.927c-0.053-0.216-0.014-0.204-0.08-0.331
			C530.879,419.574,530.973,419.902,530.799,419.927z M530.953,417.567c0.133,0.069,0.197-0.159,0.225-0.018
			c-0.035,0.006-0.068,0.014-0.055,0.059c0.047,0.009,0.109-0.006,0.117,0.048C531.16,417.752,530.93,417.764,530.953,417.567z
			 M531.248,417.768c0.061,0.163,0.076-0.133,0.217-0.072c0.006,0.057,0.01,0.113,0.016,0.168c0.086-0.002,0.188-0.022,0.172,0.1
			C531.557,418.176,531.061,418.018,531.248,417.768z M531.951,413.586c0.174,0.043,0.328,0.158,0.414,0.32
			c-0.018,0.041-0.068,0.09-0.023,0.125C531.996,414.6,531.418,413.814,531.951,413.586z M532.092,419.359
			c0.092-0.189,0.291-0.044,0.305,0.081C532.307,419.627,532.106,419.483,532.092,419.359z M532.217,417.271
			c-0.121-0.173-0.127-0.407-0.363-0.53c0.07-0.132,0.145-0.025,0.123,0.039c0.311,0.221,0.375-0.062,0.65,0.088
			C532.608,417.23,532.307,417.031,532.217,417.271z"/>
	</g>
</g>
</svg>
